<svg width="40" height="40" viewBox="0 0 40 40" fill="none" xmlns="http://www.w3.org/2000/svg">
<path d="M4 4H6V6H4V4Z" fill="#3D7DD0"/>
<path d="M10 4H8V6H10V4Z" fill="#3D7DD0"/>
<path d="M14 4H12V6H14V4Z" fill="#3D7DD0"/>
<path d="M11 18C10.4478 18 10 18.4478 10 19C10 19.5522 10.4478 20 11 20H23C23.5522 20 24 19.5522 24 19C24 18.4478 23.5522 18 23 18H11Z" fill="#3D7DD0"/>
<path fill-rule="evenodd" clip-rule="evenodd" d="M34 14H6V24H34V14ZM32 16H8V22H32V16Z" fill="#3D7DD0"/>
<path d="M6 28C6 27.4478 6.44775 27 7 27H24C24.5522 27 25 27.4478 25 28C25 28.5522 24.5522 29 24 29H7C6.44775 29 6 28.5522 6 28Z" fill="#3D7DD0"/>
<path d="M7 31C6.44775 31 6 31.4478 6 32C6 32.5522 6.44775 33 7 33H18C18.5522 33 19 32.5522 19 32C19 31.4478 18.5522 31 18 31H7Z" fill="#3D7DD0"/>
<path fill-rule="evenodd" clip-rule="evenodd" d="M3 0C1.34314 0 0 1.34314 0 3V37C0 38.6569 1.34314 40 3 40H37C38.6569 40 40 38.6569 40 37V3C40 1.34314 38.6569 0 37 0H3ZM3 2C2.44775 2 2 2.44775 2 3V8H38V3C38 2.44775 37.5522 2 37 2H3ZM38 10H2V37C2 37.5522 2.44775 38 3 38H37C37.5522 38 38 37.5522 38 37V10Z" fill="#3D7DD0"/>
</svg>
