<svg xmlns="http://www.w3.org/2000/svg" width="40" height="40" viewBox="0 0 40 40" fill="none">
<path fill-rule="evenodd" clip-rule="evenodd" d="M0 2C0 0.895386 0.895447 0 2 0H8C9.10455 0 10 0.895386 10 2V4H30V2C30 0.895386 30.8954 0 32 0H38C39.1046 0 40 0.895386 40 2V8C40 9.10461 39.1046 10 38 10H36V23C36 23.5522 35.5523 24 35 24C34.4477 24 34 23.5522 34 23V10H32C30.8954 10 30 9.10461 30 8V6H10V8C10 9.10461 9.10455 10 8 10H6V30H8C9.10455 30 10 30.8954 10 32V34H22C22.5523 34 23 34.4478 23 35C23 35.5522 22.5523 36 22 36H10V38C10 39.1046 9.10455 40 8 40H2C0.895447 40 0 39.1046 0 38V32C0 30.8954 0.895447 30 2 30H4V10H2C0.895447 10 0 9.10461 0 8V2ZM32 2V8H38V2H32ZM2 2V8H8V2H2ZM2 32H8V38H2V32Z" fill="#3D7DD0"/>
<path d="M27 15C27 14.4477 26.5523 14 26 14H14C13.4477 14 13 14.4477 13 15C13 15.5523 13.4477 16 14 16H19V27C19 27.5523 19.4477 28 20 28C20.5523 28 21 27.5523 21 27V16H26C26.5523 16 27 15.5523 27 15Z" fill="#3D7DD0"/>
<path fill-rule="evenodd" clip-rule="evenodd" d="M24 40L40 24V40H24ZM28.8284 38L38 28.8284V38H28.8284Z" fill="#3D7DD0"/>
</svg>