<svg xmlns="http://www.w3.org/2000/svg" width="40" height="40" viewBox="0 0 40 40" fill="none">
<path fill-rule="evenodd" clip-rule="evenodd" d="M0.9375 0C0.419739 0 0 0.419678 0 0.9375V30C0 35.5228 4.47714 40 10 40H39.0625C39.5803 40 40 39.5803 40 39.0625V20.9375C40 20.4197 39.5803 20 39.0625 20H34.7105L37.9055 16.8051C38.2716 16.4388 38.2716 15.8453 37.9055 15.4792L25.0892 2.66296C24.7231 2.29675 24.1295 2.29675 23.7634 2.66296L20 6.42627V0.9375C20 0.419678 19.5803 0 19.0625 0H0.9375ZM20 9.25464V13.1301L26.8699 20H31.8821L35.74 16.1421L24.4263 4.82837L20 9.25464ZM24.0415 20L20 15.9585V20H24.0415ZM27 38H16.001C18.4293 36.1755 20 33.2712 20 30V22H27V38ZM18 30C18 34.4183 14.4183 38 10 38C5.58173 38 2 34.4183 2 30V25H18V30ZM2 23H18V13H2V23ZM2 11V2H18V11H2ZM38 22H29V38H38V22Z" fill="#3D7DD0"/>
</svg>