<svg width="60" height="60" viewBox="0 0 60 60" fill="none" xmlns="http://www.w3.org/2000/svg">
<path fill-rule="evenodd" clip-rule="evenodd" d="M58 37H57V58C57 58.5304 56.7893 59.039 56.4142 59.4141C56.0391 59.7891 55.5304 60 55 60H5C4.46957 60 3.96086 59.7891 3.58578 59.4141C3.21071 59.039 3 58.5304 3 58V37H2C1.46957 37 0.960858 36.7891 0.585785 36.4141C0.210712 36.039 0 35.5304 0 35V25H9V29H13V25H22V35C22 35.5304 21.7893 36.039 21.4142 36.4141C21.0391 36.7891 20.5304 37 20 37H19V58H24V48C24 46.4087 24.6321 44.8825 25.7574 43.7573C26.8826 42.6321 28.4087 42 30 42C31.5913 42 33.1174 42.6321 34.2426 43.7573C35.3679 44.8825 36 46.4087 36 48V58H41V37H40C39.4696 37 38.9609 36.7891 38.5858 36.4141C38.2107 36.039 38 35.5304 38 35V30V25H47V29H51V25H60V35C60 35.5304 59.7893 36.039 59.4142 36.4141C59.0391 36.7891 58.5304 37 58 37ZM5 53V58H17V37H5V53ZM20 35V27H15V31H7V27H2V35H20ZM34 48C34 46.9391 33.5786 45.9215 32.8284 45.1714C32.0783 44.4212 31.0609 44 30 44C28.9391 44 27.9217 44.4212 27.1716 45.1714C26.4214 45.9215 26 46.9391 26 48V58H34V48ZM43 58H55V37H43V58ZM58 33V27H53V31H45V27H40V35H58V33ZM49 41C49.7957 41 50.5587 41.3163 51.1213 41.8789C51.6839 42.4415 52 43.2043 52 44V51H46V44C46 43.2043 46.3161 42.4415 46.8787 41.8789C47.4413 41.3163 48.2043 41 49 41ZM48 49H50V44C50 43.7348 49.8946 43.4805 49.7071 43.293C49.5196 43.1054 49.2652 43 49 43C48.7348 43 48.4804 43.1054 48.2929 43.293C48.1054 43.4805 48 43.7348 48 44V49ZM11 41C11.7956 41 12.5587 41.3163 13.1213 41.8789C13.6839 42.4415 14 43.2043 14 44V51H8V44C8 43.2043 8.31608 42.4415 8.87869 41.8789C9.4413 41.3163 10.2044 41 11 41ZM10 49H12V44C12 43.7348 11.8946 43.4805 11.7071 43.293C11.5196 43.1054 11.2652 43 11 43C10.7348 43 10.4804 43.1054 10.2929 43.293C10.1054 43.4805 10 43.7348 10 44V49ZM33 29V36H27V29C27 28.2044 27.3161 27.4415 27.8787 26.8789C28.4413 26.3163 29.2044 26 30 26C30.7956 26 31.5587 26.3163 32.1213 26.8789C32.6839 27.4415 33 28.2044 33 29ZM29 29V34H31V29C31 28.7348 30.8946 28.4805 30.7071 28.293C30.5196 28.1054 30.2652 28 30 28C29.7348 28 29.4804 28.1054 29.2929 28.293C29.1054 28.4805 29 28.7348 29 29ZM48 19H46V23H44V19H16V23H14V19H12C11.4696 19 10.9609 18.7891 10.5858 18.4141C10.2107 18.039 10 17.5304 10 17V7H20V11H25V7H29V0H31V1H34C34.2652 1 34.5196 1.10543 34.7071 1.29297C34.8946 1.48051 35 1.73478 35 2V3H38C38.2652 3 38.5196 3.10543 38.7071 3.29297C38.8946 3.48051 39 3.73478 39 4C39 4.26522 38.8946 4.5195 38.7071 4.70703C38.5196 4.89457 38.2652 5 38 5H34C33.7348 5 33.4804 4.89457 33.2929 4.70703C33.1054 4.5195 33 4.26522 33 4V3H31V7H35V11H40V7H50V17C50 17.5304 49.7893 18.039 49.4142 18.4141C49.0391 18.7891 48.5304 19 48 19ZM48 15V9H42V13H33V9H27V13H18V9H12V17H48V15Z" fill="#3562D6"/>
</svg>
