<svg width="15" height="14" viewBox="0 0 15 14" fill="none" xmlns="http://www.w3.org/2000/svg">
<g opacity="0.5">
<path d="M2.99954 7.02442L2.99957 7.00006L2.99954 7.02442ZM2.99954 7.02442C2.99955 9.40748 3.88664 11.0157 4.08019 11.2496M2.99954 7.02442L4.08019 11.2496M1.99957 7.00084L1.99955 6.97649L1.99955 6.9757C1.99954 5.66036 2.24423 4.55433 2.51975 3.73757C2.78301 2.95713 3.10092 2.36544 3.30972 2.11308L3.30972 2.11307C3.46928 1.92023 3.72316 1.67889 4.04277 1.47305C4.36179 1.26759 4.80527 1.05976 5.3314 1.02211L5.33141 1.02211C5.80832 0.987985 6.01133 1.00021 6.1895 1.01407L6.18963 1.01408C6.24564 1.01845 6.26371 1.01956 6.28987 1.01956L1.99957 7.00084ZM1.99957 7.00084L1.99954 7.02338V7.02443C1.99955 8.33977 2.24423 9.44579 2.51975 10.2626C2.783 11.043 3.10091 11.6347 3.30973 11.8871C3.46928 12.0799 3.72315 12.3212 4.04276 12.5271C4.36178 12.7325 4.80526 12.9404 5.33138 12.978C5.80826 13.0121 6.01138 12.9999 6.18943 12.9861L6.18954 12.986C6.24553 12.9817 6.26364 12.9806 6.28986 12.9806H6.28988C6.67644 12.9806 6.96816 12.7832 7.07545 12.707C7.22822 12.5984 7.36526 12.4673 7.47736 12.3409C7.59023 12.2137 7.70315 12.0628 7.7939 11.9C7.86799 11.767 7.99954 11.5013 7.99954 11.1765L1.99957 7.00084ZM5.35563 6.99837L5.35512 7.02181L5.35465 7.04357L5.35464 7.04398L5.35439 7.06757L5.35439 7.06828C5.35439 7.20492 5.36498 7.50101 5.38801 7.81589C5.39758 7.94674 5.40841 8.06755 5.41973 8.17316C5.5485 8.15259 5.69933 8.13759 5.84642 8.14592L5.35563 6.99837ZM5.35563 6.99837L5.35504 6.97494M5.35563 6.99837L5.35504 6.97494M5.09925 8.62242V8.62242ZM5.09925 8.62242L4.98343 9.26128C4.82212 9.23203 4.59633 9.17356 4.49955 8.7642L5.09925 8.62242ZM5.35504 6.97494C5.35456 6.95555 5.35439 6.9413 5.35439 6.93183L5.35504 6.97494ZM7.42191 9.72732L7.42191 9.72732L7.42998 9.74046C7.51997 9.88681 7.6452 10.0905 7.74735 10.2912C7.82848 10.4507 7.99954 10.7982 7.99954 11.1765L7.42191 9.72732ZM7.42191 9.72732L7.41949 9.72342L7.42191 9.72732ZM7.21912 4.63242L7.21905 4.63256C7.2155 4.63943 7.21184 4.64652 7.20807 4.65382C7.13498 4.79546 7.02188 5.01461 6.89233 5.20029C6.82313 5.29948 6.72009 5.43261 6.58034 5.55117C6.44517 5.66586 6.19578 5.8344 5.84648 5.85421L5.84637 5.85421C5.69927 5.86254 5.54848 5.84754 5.41973 5.82697C5.40841 5.93258 5.39758 6.05339 5.38801 6.18424C5.36499 6.499 5.3544 6.79498 5.35439 6.93168L7.21912 4.63242ZM7.21912 4.63242C7.27727 4.51984 7.31242 4.45275 7.34026 4.40649L7.21912 4.63242ZM7.20816 9.34651C7.21191 9.35378 7.21556 9.36085 7.2191 9.3677L7.20816 9.34651ZM7.20816 9.34651C7.13506 9.20483 7.02196 8.98562 6.89239 8.79989M7.20816 9.34651L6.89239 8.79989M6.89239 8.79989C6.82319 8.70068 6.72013 8.56752 6.58035 8.44894M6.89239 8.79989L6.58035 8.44894M6.58035 8.44894C6.44513 8.33422 6.19574 8.16572 5.84649 8.14592L6.58035 8.44894ZM5.40277 11.9806C5.82887 12.0111 5.98222 11.9991 6.11194 11.9891C6.16876 11.9846 6.22109 11.9806 6.28987 11.9806L5.40277 11.9806ZM5.40277 11.9806C4.78986 11.9367 4.27374 11.4835 4.08019 11.2496M5.40277 11.9806L4.08019 11.2496M5.09929 8.62241V8.62241ZM7.34024 9.59362C7.31242 9.54738 7.27728 9.48032 7.21912 9.36774L7.41936 9.72321C7.38933 9.67433 7.36348 9.63224 7.34024 9.59362ZM7.99954 2.82365C7.99955 2.49884 7.868 2.23308 7.79391 2.10015C7.70316 1.93732 7.59024 1.78639 7.47736 1.65919C7.36527 1.53287 7.22822 1.40178 7.07545 1.29317C6.96816 1.21689 6.67644 1.01956 6.28989 1.01956L7.99954 2.82365ZM7.74735 3.70887C7.82848 3.54939 7.99952 3.20197 7.99954 2.8237L7.41898 4.27757C7.41899 4.27755 7.41901 4.27752 7.41902 4.2775L7.42192 4.27279L7.42197 4.2727L7.42999 4.25965C7.51998 4.1133 7.6452 3.90965 7.74735 3.70887Z" stroke="#333333" stroke-width="2"/>
</g>
</svg>
