<svg width="20" height="20" viewBox="0 0 20 20" fill="none" xmlns="http://www.w3.org/2000/svg">
<g opacity="0.5">
<path d="M11 3H7C3.68629 3 1 5.68629 1 9V13C1 16.3137 3.68629 19 7 19H11C14.3137 19 17 16.3137 17 13V9" stroke="#333333" stroke-width="2" stroke-linecap="round"/>
<mask id="mask0_165_1463" style="mask-type:alpha" maskUnits="userSpaceOnUse" x="0" y="2" width="18" height="18">
<circle cx="9" cy="11" r="8" fill="#C4C4C4" stroke="#333333" stroke-width="2"/>
</mask>
<g mask="url(#mask0_165_1463)">
<rect width="10" height="9" rx="4" transform="matrix(-1 0 0 1 14 14)" stroke="#333333" stroke-width="2"/>
<circle cx="9" cy="10" r="3" stroke="#333333" stroke-width="2"/>
</g>
</g>
<path d="M21.707 1.70703C22.0977 1.31665 22.0977 0.68335 21.707 0.292969C21.3164 -0.0976562 20.6836 -0.0976562 20.293 0.292969L17 3.58569L15.707 2.29297C15.3164 1.90234 14.6836 1.90234 14.293 2.29297C13.9023 2.68335 13.9023 3.31665 14.293 3.70703L16.293 5.70703C16.6836 6.09766 17.3164 6.09766 17.707 5.70703L21.707 1.70703Z" fill="#49B822"/>
</svg>
