<svg width="15" height="9" viewBox="0 0 15 9" fill="none" xmlns="http://www.w3.org/2000/svg">
<path fill-rule="evenodd" clip-rule="evenodd" d="M8.95125 0.785413V4.0378C8.94773 4.09153 8.95698 4.14532 8.97829 4.19474C8.99959 4.24416 9.03233 4.28782 9.07376 4.32206C9.1152 4.3563 9.16413 4.38015 9.21658 4.39167C9.26902 4.40319 9.32346 4.40205 9.37537 4.38832C9.67408 4.36734 10.3492 1.59224 10.6489 0.987094C10.8079 0.645883 11.0635 0.359072 11.3837 0.162266C11.4846 0.0706142 11.6133 0.0157281 11.7491 0.00647913H14.6147C14.6921 0.0195388 14.7648 0.0521422 14.8261 0.101195C14.8875 0.150247 14.9353 0.214121 14.9651 0.286846C14.995 0.359571 15.006 0.438737 14.9969 0.516869C14.9879 0.595002 14.9591 0.669568 14.9134 0.733484C14.6894 1.23278 12.7677 4.33837 12.6681 4.4642C12.5483 4.62656 12.4675 4.81459 12.4321 5.01347C12.4713 5.24852 12.5795 5.46646 12.7428 5.63955C12.942 5.86523 14.551 7.63677 14.7013 7.79155C14.8431 7.95472 14.9378 8.15358 14.9752 8.36673C14.9393 8.54843 14.8386 8.71082 14.692 8.82348C14.5454 8.93615 14.3629 8.99135 14.1786 8.97884C13.5553 8.97884 12.0219 8.97884 11.8467 8.97884C11.4964 8.85592 11.1742 8.66409 10.8988 8.41463C10.6748 8.21491 9.84435 7.26427 9.71989 7.13945C9.67776 7.08864 9.62394 7.04888 9.56304 7.02365C9.50214 6.99841 9.43599 6.98846 9.37039 6.99463C9.22104 6.99463 8.93727 7.00963 8.95021 7.57883C8.98579 7.97317 8.90331 8.36916 8.71326 8.71621C8.61604 8.8097 8.50083 8.88231 8.37464 8.92953C8.24845 8.97676 8.11396 8.99762 7.97944 8.99085C6.96096 9.05277 5.94811 8.79935 5.078 8.26488C3.51078 7.28925 1.72649 4.68189 0.896085 3.01823C0.400758 2.19226 0.0947066 1.26624 0 0.307082C0.0497845 0.131329 0.0497369 0.00751527 0.224978 0.00751527C0.40022 0.00751527 2.60372 0.00751527 2.81381 0.00751527C2.95947 0.0795153 3.08097 0.192665 3.16331 0.333046C3.23799 0.432906 3.80748 2.14248 3.98173 2.44305C4.15597 2.74363 5.01524 4.39033 5.48122 4.39033C5.63594 4.35986 5.77239 4.2693 5.8608 4.13836C5.94921 4.00742 5.98241 3.84669 5.95318 3.6913C5.95318 3.29186 5.95318 1.71509 5.95318 1.51437C5.76377 1.07159 5.41659 0.715536 4.97942 0.515772C5.08829 0.370739 5.22716 0.251007 5.38648 0.164826C5.54579 0.0786447 5.72179 0.0280529 5.90243 0.0164748C6.49984 -0.00849004 7.99835 -0.00850321 8.32195 0.040428C8.49564 0.0744029 8.6526 0.166733 8.76698 0.302145C8.88137 0.437557 8.94637 0.608006 8.95125 0.785413Z" fill="#333"/>
</svg>
