<svg width="79" height="12" viewBox="0 0 79 12" fill="none" xmlns="http://www.w3.org/2000/svg">
<path fill-rule="evenodd" clip-rule="evenodd" d="M78.0726 8.27471C77.7673 8.99165 77.3429 9.62506 76.8003 10.1749C76.2569 10.7248 75.6101 11.1668 74.8577 11.5002C74.1054 11.8329 73.2829 12 72.3896 12C71.4736 12 70.6426 11.8281 69.8959 11.4835C69.1499 11.139 68.5109 10.6858 67.9796 10.1248C67.4475 9.56381 67.0352 8.92204 66.7412 8.20023C66.4472 7.47773 66.2999 6.73295 66.2999 5.96659C66.2999 5.1891 66.4529 4.43875 66.7582 3.71694C67.0636 2.99443 67.49 2.35824 68.0391 1.80835C68.5874 1.25847 69.237 0.819258 69.9894 0.491415C70.741 0.164269 71.5642 0 72.4576 0C73.3736 0 74.2046 0.172622 74.9513 0.516473C75.6972 0.861021 76.3363 1.31694 76.8676 1.88353C77.3996 2.45012 77.8091 3.09466 78.0974 3.81647C78.3857 4.53898 78.5303 5.27749 78.5303 6.03341C78.5303 6.81091 78.378 7.55847 78.0726 8.27471ZM75.0023 4.80835C74.8889 4.43596 74.7161 4.10812 74.4844 3.82483C74.2527 3.54153 73.9644 3.31392 73.6194 3.142C73.2744 2.96937 72.8706 2.88306 72.4066 2.88306C71.9319 2.88306 71.5217 2.97216 71.1767 3.14965C70.8317 3.32784 70.5462 3.56381 70.3202 3.85824C70.0935 4.15267 69.927 4.48608 69.8201 4.85847C69.7124 5.23086 69.6585 5.61091 69.6585 6C69.6585 6.40023 69.7152 6.78585 69.8286 7.15824C69.9412 7.53063 70.1105 7.86125 70.3372 8.15012C70.5632 8.43898 70.8487 8.67216 71.1937 8.84965C71.5387 9.02784 71.9489 9.11694 72.4236 9.11694C72.8989 9.11694 73.3112 9.02506 73.6619 8.8413C74.0126 8.65824 74.2981 8.41949 74.5184 8.12506C74.7387 7.83063 74.9031 7.49443 75.0108 7.11647C75.1177 6.73921 75.1716 6.35569 75.1716 5.96659C75.1716 5.56636 75.1149 5.18074 75.0023 4.80835ZM59.4876 7.00858C59.1426 7.39142 58.7246 7.69698 58.2322 7.92529C57.7406 8.1529 57.2007 8.26636 56.6127 8.26636H54.6447V11.8998H51.337V0.0668214H56.5277C57.1157 0.0668214 57.6584 0.186543 58.1564 0.42529C58.6537 0.664037 59.0809 0.975174 59.4366 1.358C59.7929 1.74153 60.0727 2.18074 60.2768 2.67494C60.4801 3.16984 60.5821 3.66682 60.5821 4.16659C60.5821 4.68933 60.4858 5.19745 60.2938 5.69165C60.1011 6.18585 59.8326 6.62506 59.4876 7.00858ZM56.9181 3.16636C56.714 2.98886 56.5107 2.89977 56.3074 2.89977H54.6447V5.43341H56.3917C56.5957 5.43341 56.7849 5.34153 56.9606 5.15847C57.1356 4.97471 57.2234 4.64478 57.2234 4.16659C57.2234 3.67796 57.1214 3.34455 56.9181 3.16636ZM40.9691 2.89977H37.2548V11.8998H33.9464V0.0668214H44.2775V11.8998H40.9691V2.89977ZM20.7766 8.16682C21.0146 8.45568 21.3051 8.68608 21.6501 8.858C21.9951 9.03063 22.3826 9.11694 22.8126 9.11694C23.0386 9.11694 23.2703 9.09188 23.5076 9.04176C23.7457 8.99165 23.9745 8.90812 24.1948 8.79188C24.4151 8.67494 24.6128 8.52529 24.7885 8.34153C24.9635 8.15847 25.1023 7.93295 25.2043 7.66636L27.9013 9.24988C27.72 9.68353 27.4458 10.0726 27.0788 10.4165C26.7112 10.761 26.2925 11.0499 25.8235 11.2831C25.3538 11.5162 24.8508 11.6944 24.3138 11.8162C23.7761 11.9387 23.2533 12 22.7446 12C21.8513 12 21.0338 11.8246 20.2935 11.4752C19.5524 11.1251 18.9134 10.6608 18.3764 10.0831C17.8394 9.50534 17.4236 8.84965 17.1296 8.11671C16.8356 7.38306 16.6889 6.63898 16.6889 5.88306C16.6889 5.16125 16.8271 4.44988 17.1041 3.74965C17.3811 3.05012 17.7856 2.42227 18.3169 1.86682C18.8482 1.31137 19.4929 0.861021 20.2509 0.516473C21.0083 0.172622 21.8733 0 22.8459 0C24.0106 0 25.0201 0.235963 25.8745 0.708585C26.7282 1.18051 27.3636 1.80557 27.7823 2.58306L25.2553 4.34965C25.142 4.06149 24.9918 3.82204 24.8055 3.63341C24.6192 3.44478 24.4123 3.29443 24.1863 3.18306C23.9603 3.07239 23.7251 2.99443 23.4821 2.94988C23.2391 2.90603 23.0046 2.88306 22.7786 2.88306C22.3033 2.88306 21.8938 2.97494 21.5488 3.158C21.2038 3.34176 20.9211 3.58051 20.7008 3.87494C20.4798 4.16937 20.3161 4.50278 20.2084 4.87517C20.1008 5.24756 20.0476 5.61647 20.0476 5.98329C20.0476 6.39466 20.1093 6.78933 20.2339 7.16659C20.3586 7.54455 20.5393 7.87796 20.7766 8.16682ZM7.82431 9.5833H4.61794L3.90596 11.8998H0.530273L4.71995 0.0668214H7.7393L11.912 11.8998H8.55329L7.82431 9.5833ZM6.22962 3.74965L5.1103 7.41647H7.29794L6.22962 3.74965Z" fill="#999999"/>
</svg>
