<svg width="12" height="11" viewBox="0 0 12 11" fill="none" xmlns="http://www.w3.org/2000/svg">
<g opacity="0.5">
<path d="M1 3C1 1.89543 1.89543 1 3 1H9C10.1046 1 11 1.89543 11 3V8C11 9.10457 10.1046 10 9 10H3C1.89543 10 1 9.10457 1 8V3Z" stroke="white" stroke-width="2"/>
<mask id="mask0_165_1328" style="mask-type:alpha" maskUnits="userSpaceOnUse" x="1" y="1" width="10" height="9">
<path d="M1 3C1 1.89543 1.89543 1 3 1H9C10.1046 1 11 1.89543 11 3V8C11 9.10457 10.1046 10 9 10H3C1.89543 10 1 9.10457 1 8V3Z" fill="#C4C4C4"/>
</mask>
<g mask="url(#mask0_165_1328)">
<path d="M6.66499 6.10614L25.0381 -10.2531C25.7245 -10.8643 25.2922 -12 24.3731 -12H-12.3731C-13.2922 -12 -13.7245 -10.8643 -13.0381 -10.2531L5.33501 6.10614C5.71409 6.44367 6.28591 6.44367 6.66499 6.10614Z" stroke="white" stroke-width="2"/>
</g>
</g>
</svg>
