<svg xmlns="http://www.w3.org/2000/svg" width="18" height="18" viewBox="0 0 18 18" fill="none">
<g opacity="0.5">
<circle cx="9" cy="9" r="8" stroke="white" stroke-width="2"/>
<mask id="mask0_165_1351" style="mask-type:alpha" maskUnits="userSpaceOnUse" x="0" y="0" width="18" height="18">
<circle cx="9" cy="9" r="8" fill="#C4C4C4" stroke="white" stroke-width="2"/>
</mask>
<g mask="url(#mask0_165_1351)">
<path d="M2 6C2 6 6.24214 7 9 7C11.7579 7 13.3385 6.7742 16 6" stroke="white" stroke-width="2"/>
<path d="M2 12C2 12 6.24214 11 9 11C11.7579 11 13.3385 11.2258 16 12" stroke="white" stroke-width="2"/>
<path d="M12 9C12 12.2327 11.0652 14.2781 10.1883 15.4968C9.74907 16.1072 9.31523 16.5227 9 16.7809C8.68477 16.5227 8.25093 16.1072 7.8117 15.4968C6.93478 14.2781 6 12.2327 6 9C6 5.76732 6.93478 3.72185 7.8117 2.5032C8.25093 1.89279 8.68477 1.47733 9 1.21911C9.31523 1.47733 9.74907 1.89279 10.1883 2.5032C11.0652 3.72185 12 5.76732 12 9ZM9.47524 17.1202L9.47434 17.1197C9.47555 17.1203 9.47584 17.1205 9.47524 17.1202ZM8.52476 17.1202C8.52416 17.1205 8.52445 17.1203 8.52566 17.1197L8.52476 17.1202Z" stroke="white" stroke-width="2"/>
</g>
</g>
</svg>