<svg width="223" height="39" viewBox="0 0 223 39" fill="none" xmlns="http://www.w3.org/2000/svg">
<rect opacity="0.1" x="184.5" y="0.5" width="38" height="38" rx="3.5" fill="white" stroke="white"/>
<path opacity="0.35" fill-rule="evenodd" clip-rule="evenodd" d="M200 12H207C208.061 12 209.078 12.4214 209.828 13.1716C210.579 13.9217 211 14.9391 211 16V23C211 24.0609 210.579 25.0783 209.828 25.8284C209.078 26.5786 208.061 27 207 27H200C198.939 27 197.922 26.5786 197.172 25.8284C196.421 25.0783 196 24.0609 196 23V16C196 14.9391 196.421 13.9217 197.172 13.1716C197.922 12.4214 198.939 12 200 12ZM200 14H207C207.53 14 208.039 14.2107 208.414 14.5858C208.789 14.9609 209 15.4696 209 16V23C209 23.5304 208.789 24.0391 208.414 24.4142C208.039 24.7893 207.53 25 207 25H200C199.47 25 198.961 24.7893 198.586 24.4142C198.211 24.0391 198 23.5304 198 23V16C198 15.4696 198.211 14.9609 198.586 14.5858C198.961 14.2107 199.47 14 200 14ZM203.5 16C204.192 16 204.869 16.2053 205.445 16.5898C206.02 16.9744 206.469 17.521 206.734 18.1606C206.998 18.8001 207.068 19.5039 206.933 20.1828C206.798 20.8617 206.464 21.4854 205.975 21.9749C205.485 22.4643 204.862 22.7977 204.183 22.9327C203.504 23.0678 202.8 22.9985 202.161 22.7336C201.521 22.4687 200.974 22.0201 200.59 21.4445C200.205 20.8689 200 20.1922 200 19.5C200 18.5717 200.369 17.6815 201.025 17.0251C201.682 16.3688 202.572 16 203.5 16ZM203.5 18C203.797 18 204.087 18.088 204.333 18.2528C204.58 18.4176 204.772 18.6519 204.886 18.926C204.999 19.2001 205.029 19.5017 204.971 19.7927C204.913 20.0836 204.77 20.3509 204.561 20.5607C204.351 20.7704 204.084 20.9133 203.793 20.9712C203.502 21.0291 203.2 20.9993 202.926 20.8858C202.652 20.7723 202.418 20.58 202.253 20.3334C202.088 20.0867 202 19.7967 202 19.5C202 19.1022 202.158 18.7206 202.439 18.4393C202.721 18.158 203.102 18 203.5 18Z" fill="white"/>
<rect opacity="0.1" x="138.5" y="0.5" width="38" height="38" rx="3.5" fill="white" stroke="white"/>
<path opacity="0.35" fill-rule="evenodd" clip-rule="evenodd" d="M161.003 26H154.003C152.899 25.954 151.857 25.4719 151.108 24.6595C150.358 23.8472 149.961 22.7707 150.003 21.666V17.333C149.961 16.2286 150.358 15.1524 151.108 14.3403C151.858 13.5282 152.899 13.0463 154.003 13H161.003C162.108 13.0463 163.149 13.5284 163.898 14.3407C164.648 15.153 165.045 16.2294 165.003 17.334V21.667C165.045 22.7715 164.648 23.8477 163.898 24.6599C163.149 25.4721 162.107 25.954 161.003 26ZM163.003 17.255C163.034 16.6925 162.841 16.1408 162.466 15.7202C162.091 15.2996 161.565 15.0443 161.003 15.01H154.003C153.441 15.0443 152.915 15.2996 152.54 15.7202C152.166 16.1408 151.972 16.6925 152.003 17.255V21.744C151.972 22.3065 152.166 22.8582 152.54 23.2788C152.915 23.6994 153.441 23.9547 154.003 23.989H161.003C161.565 23.9547 162.091 23.6994 162.466 23.2788C162.841 22.8582 163.034 22.3065 163.003 21.744V17.255ZM156.003 16.987L160.003 19.499L156.003 22.011V16.987Z" fill="white"/>
<rect opacity="0.1" x="92.5" y="0.5" width="38" height="38" rx="3.5" fill="white" stroke="white"/>
<path opacity="0.35" fill-rule="evenodd" clip-rule="evenodd" d="M111.618 13C112.309 13.0036 112.984 13.2119 113.557 13.5986C114.13 13.9853 114.576 14.5332 114.838 15.1731C115.1 15.8129 115.167 16.5161 115.03 17.1938C114.893 17.8716 114.558 18.4935 114.068 18.9812C113.578 19.4688 112.954 19.8004 112.276 19.934C111.597 20.0676 110.895 19.9973 110.256 19.7318C109.618 19.4664 109.072 19.0178 108.688 18.4426C108.304 17.8675 108.1 17.1915 108.1 16.5C108.1 16.0391 108.192 15.5828 108.369 15.1574C108.547 14.7319 108.806 14.3456 109.133 14.0205C109.46 13.6954 109.847 13.438 110.274 13.2629C110.7 13.0878 111.157 12.9984 111.618 13ZM111.626 14.956C111.926 14.959 112.218 15.0506 112.466 15.2195C112.714 15.3884 112.906 15.6268 113.019 15.9049C113.132 16.1829 113.16 16.4881 113.099 16.782C113.039 17.0759 112.893 17.3453 112.68 17.5564C112.466 17.7674 112.195 17.9106 111.901 17.9679C111.606 18.0252 111.302 17.9942 111.025 17.8786C110.748 17.7629 110.511 17.568 110.345 17.3182C110.179 17.0684 110.09 16.775 110.091 16.475C110.092 16.0702 110.254 15.6826 110.542 15.3974C110.829 15.1121 111.218 14.9527 111.623 14.954L111.626 14.956ZM111.618 21.016C112.288 21.0111 112.953 20.8903 113.583 20.659C113.933 20.4319 114.308 20.2428 114.699 20.095C114.919 20.103 115.282 20.468 115.22 21.412C115.185 21.95 114.202 22.173 113.856 22.379C113.63 22.5019 113.384 22.5854 113.131 22.626C113.131 22.626 113.978 23.532 114.194 23.755C114.632 24.0746 114.963 24.5205 115.142 25.033C115.084 25.2763 114.961 25.4988 114.784 25.6754C114.607 25.8521 114.385 25.976 114.142 26.033C113.604 25.7576 113.128 25.3766 112.742 24.913C112.159 24.357 111.626 23.843 111.626 23.843C111.626 23.843 111.081 24.33 110.512 24.892C110.134 25.3575 109.669 25.745 109.144 26.033C108.873 25.9634 108.629 25.8166 108.44 25.6107C108.252 25.4047 108.127 25.1485 108.082 24.873C108.416 24.3166 108.835 23.8151 109.323 23.386C109.572 23.1157 109.839 22.8628 110.123 22.629C109.899 22.5981 109.683 22.5277 109.485 22.421C109.004 22.154 107.974 21.874 108.001 21.378C108.029 20.866 108.16 20.078 108.617 20.078C109.007 20.2202 109.382 20.4018 109.736 20.62C110.326 20.8893 110.969 21.0238 111.618 21.014V21.016Z" fill="white"/>
<rect opacity="0.1" x="0.5" y="0.5" width="38" height="38" rx="3.5" fill="white" stroke="white"/>
<path opacity="0.35" fill-rule="evenodd" clip-rule="evenodd" d="M24.004 27H21.0161V21.986H23.39L23.7 19.979H21.0161C21.0161 19.979 21.0161 17.694 21.0161 17.469C21.025 17.3916 21.0499 17.3169 21.0893 17.2497C21.1287 17.1825 21.1815 17.1241 21.2446 17.0784C21.3077 17.0327 21.3797 17.0006 21.4558 16.9842C21.532 16.9678 21.6107 16.9673 21.687 16.983C22.126 16.983 22.992 16.983 22.992 16.983L23.304 15C22.5047 14.9456 21.7025 14.9516 20.9041 15.018C20.3472 15.0921 19.8382 15.3718 19.4771 15.802C19.1362 16.2633 18.9674 16.8293 19 17.402V19.993L17 19.979V21.986L19 21.993V27H15C14.2044 27 13.4413 26.6839 12.8787 26.1213C12.3161 25.5587 12 24.7956 12 24V15C12 14.2044 12.3161 13.4413 12.8787 12.8787C13.4413 12.3161 14.2044 12 15 12H24C24.7956 12 25.5587 12.3161 26.1213 12.8787C26.6839 13.4413 27 14.2044 27 15V24C27 24.795 26.6845 25.5574 26.1227 26.1199C25.561 26.6824 24.799 26.9989 24.004 27Z" fill="white"/>
<rect opacity="0.1" x="46.5" y="0.5" width="38" height="38" rx="3.5" fill="white" stroke="white"/>
<path opacity="0.35" fill-rule="evenodd" clip-rule="evenodd" d="M66.99 15.7805V19.0375C66.9864 19.0913 66.9957 19.1452 67.0171 19.1946C67.0385 19.2441 67.0714 19.2877 67.113 19.322C67.1547 19.3562 67.2039 19.38 67.2566 19.3914C67.3093 19.4028 67.3639 19.4015 67.416 19.3875C67.716 19.3675 68.3939 16.5875 68.6949 15.9875C68.8549 15.6457 69.1115 15.3582 69.433 15.1605C69.5345 15.0692 69.6637 15.0145 69.8 15.0055H72.678C72.7557 15.0186 72.8287 15.0512 72.8903 15.1003C72.9519 15.1495 72.9999 15.2134 73.0299 15.2863C73.0599 15.3591 73.0709 15.4384 73.0618 15.5166C73.0527 15.5948 73.0239 15.6695 72.978 15.7335C72.753 16.2335 70.823 19.3435 70.723 19.4695C70.6026 19.6321 70.5215 19.8203 70.486 20.0195C70.5255 20.2545 70.6341 20.4724 70.798 20.6455C70.998 20.8725 72.614 22.6515 72.765 22.8005C72.9071 22.9644 73.0022 23.1638 73.04 23.3775C73.0039 23.5595 72.9029 23.7221 72.7556 23.8349C72.6084 23.9477 72.4251 24.003 72.24 23.9905C71.614 23.9905 70.0739 23.9905 69.8979 23.9905C69.5462 23.8674 69.2226 23.6753 68.946 23.4255C68.721 23.2255 67.887 22.2735 67.762 22.1485C67.7197 22.0976 67.6656 22.0578 67.6044 22.0325C67.5433 22.0073 67.4768 21.9973 67.4109 22.0035C67.261 22.0035 66.976 22.0185 66.989 22.5875C67.0245 22.9827 66.9416 23.3795 66.751 23.7275C66.6533 23.8211 66.5376 23.8938 66.4109 23.9411C66.2842 23.9884 66.1491 24.0093 66.014 24.0025C64.9911 24.0645 63.9739 23.8107 63.1 23.2755C61.526 22.2975 59.734 19.6865 58.9 18.0215C58.4025 17.1943 58.0951 16.267 58 15.3065C58.05 15.1305 58.05 15.0065 58.226 15.0065C58.402 15.0065 60.615 15.0065 60.826 15.0065C60.9721 15.0793 61.094 15.1929 61.177 15.3335C61.252 15.4335 61.824 17.1455 61.999 17.4465C62.174 17.7475 63.0369 19.3965 63.5049 19.3965C63.6603 19.366 63.7974 19.2753 63.8862 19.1442C63.975 19.013 64.0083 18.8521 63.9789 18.6965C63.9789 18.2965 63.9789 16.7175 63.9789 16.5165C63.7887 16.0731 63.44 15.7165 63.001 15.5165C63.1103 15.3712 63.2498 15.2514 63.4098 15.1651C63.5698 15.0788 63.7466 15.0281 63.928 15.0165C64.528 14.9915 66.033 14.9915 66.358 15.0405C66.5314 15.0743 66.6883 15.1658 66.8031 15.3002C66.9179 15.4346 66.9838 15.6039 66.99 15.7805Z" fill="white"/>
</svg>
