<svg width="244" height="20" viewBox="0 0 244 20" fill="none" xmlns="http://www.w3.org/2000/svg">
<g opacity="0.5">
<path opacity="0.5" fill-rule="evenodd" clip-rule="evenodd" d="M13 6V3C13 2.73478 13.1054 2.48044 13.2929 2.29291C13.4804 2.10537 13.7348 2 14 2C14.2652 2 14.5196 2.10537 14.7071 2.29291C14.8946 2.48044 15 2.73478 15 3V6H13ZM10 6V1C10 0.734784 10.1054 0.480444 10.2929 0.292908C10.4804 0.105371 10.7348 0 11 0C11.2652 0 11.5196 0.105371 11.7071 0.292908C11.8946 0.480444 12 0.734784 12 1V6H10ZM7 6V3C7 2.73478 7.10536 2.48044 7.29289 2.29291C7.48043 2.10537 7.73478 2 8 2C8.26522 2 8.51957 2.10537 8.70711 2.29291C8.89464 2.48044 9 2.73478 9 3V6H7ZM4 6V5C4 4.73478 4.10536 4.48044 4.29289 4.29291C4.48043 4.10537 4.73478 4 5 4C5.26522 4 5.51957 4.10537 5.70711 4.29291C5.89464 4.48044 6 4.73478 6 5V6H4Z" fill="white"/>
<path fill-rule="evenodd" clip-rule="evenodd" d="M17 16V9C17 8.73478 16.8946 8.48044 16.7071 8.29291C16.5196 8.10537 16.2652 8 16 8C15.7348 8 15.4804 8.10537 15.2929 8.29291C15.1054 8.48044 15 8.73478 15 9V12.051C14.8348 12.0218 14.6677 12.0048 14.5 12C13.5717 12 12.6815 12.3687 12.0251 13.0251C11.3688 13.6815 11 14.5717 11 15.5C11.0059 15.6678 11.0246 15.835 11.056 16H0V6H20V16H17ZM5 9C4.60444 9 4.21775 9.1173 3.88885 9.33707C3.55996 9.55683 3.30361 9.86917 3.15224 10.2346C3.00086 10.6001 2.96127 11.0022 3.03844 11.3902C3.11561 11.7781 3.30608 12.1345 3.58578 12.4142C3.86549 12.6939 4.22186 12.8844 4.60982 12.9616C4.99778 13.0387 5.39991 12.9991 5.76537 12.8477C6.13082 12.6964 6.44317 12.44 6.66293 12.1111C6.8827 11.7822 7 11.3956 7 11C7 10.4696 6.78929 9.96086 6.41422 9.58578C6.03914 9.21071 5.53043 9 5 9Z" fill="white"/>
<path opacity="0.7" d="M5 13C6.10457 13 7 12.1046 7 11C7 9.89543 6.10457 9 5 9C3.89543 9 3 9.89543 3 11C3 12.1046 3.89543 13 5 13Z" fill="white"/>
<path opacity="0.5" fill-rule="evenodd" clip-rule="evenodd" d="M17 16.937C16.4192 17.873 15.6094 18.6454 14.647 19.1814C13.6847 19.7173 12.6015 19.9991 11.5 20H10.5C9.21674 20 7.96219 19.6202 6.89445 18.9083C5.82672 18.1965 4.99356 17.1846 4.5 16H11.056C11.0246 15.835 11.0059 15.6678 11 15.5C11 14.5717 11.3688 13.6815 12.0251 13.0251C12.6815 12.3687 13.5717 12 14.5 12C14.6677 12.0048 14.8348 12.0218 15 12.051V9C15 8.73478 15.1054 8.48044 15.2929 8.29291C15.4804 8.10537 15.7348 8 16 8C16.2652 8 16.5196 8.10537 16.7071 8.29291C16.8946 8.48044 17 8.73478 17 9V16.937Z" fill="white"/>
<path fill-rule="evenodd" clip-rule="evenodd" d="M69.1079 16.0002C69.1079 16.0002 68.8779 14.6002 68.8009 14.2482H65.4829C65.3909 14.5232 64.9319 16.0002 64.9319 16.0002H62.2249L66.0639 6.84417C66.1593 6.57194 66.3446 6.34036 66.5893 6.18765C66.834 6.03493 67.1235 5.97022 67.4099 6.00418H69.4099L71.5099 16.0042H69.1099L69.1079 16.0002ZM67.7769 9.55917L67.5929 8.70517C67.4709 9.08617 67.2409 9.68216 67.2569 9.66616C67.2569 9.66616 66.4309 11.8782 66.2319 12.4582H68.3729C68.2659 11.9552 67.7769 9.55917 67.7769 9.55917ZM62.2089 8.30917C61.6043 8.03612 60.945 7.90545 60.2819 7.92718C59.2569 7.92718 58.7979 8.35419 58.7819 8.78119C58.7819 9.25519 59.3329 9.55918 60.2499 10.0172C61.7339 10.7172 62.4219 11.5892 62.4069 12.7332C62.3919 14.7922 60.6329 16.1332 57.9069 16.1332C56.9238 16.136 55.9488 15.9552 55.0319 15.6002L55.3829 13.3572L55.7349 13.5252C56.486 13.8946 57.3151 14.0778 58.1519 14.0592C58.4874 14.1246 58.8352 14.0601 59.1248 13.8787C59.4145 13.6973 59.6244 13.4126 59.7119 13.0822C59.7119 12.6402 59.3759 12.3192 58.3659 11.8312C57.3869 11.3592 56.0869 10.5662 56.1019 9.13119C56.1179 7.19419 57.9069 5.83117 60.4619 5.83117C61.2554 5.82641 62.0432 5.96567 62.7869 6.24218L62.4349 8.40918L62.2089 8.30917ZM50.8289 16.0002L52.4509 6.00018H55.0359L53.4149 16.0002H50.8289ZM44.6039 16.0002L42.5969 8.47216L42.4399 7.86117C42.7936 8.03812 43.1287 8.25018 43.4399 8.49417C44.3813 9.26243 45.1863 10.184 45.8209 11.2202L45.8129 11.1772L45.8629 11.4362L46.1389 12.8092L48.6729 6.00018H51.4109L47.3419 16.0002H44.5999H44.6039Z" fill="white"/>
<path opacity="0.5" fill-rule="evenodd" clip-rule="evenodd" d="M43.435 8.49426C43.1237 8.25028 42.7887 8.03822 42.435 7.86127L42.288 7.30728C41.5579 6.87704 40.7777 6.53816 39.965 6.29828V5.98828H43.936C44.174 5.98886 44.4047 6.07107 44.5894 6.22122C44.7741 6.37137 44.9018 6.58035 44.951 6.81326L45.811 11.2203C45.1778 10.1845 44.3745 9.26294 43.435 8.49426Z" fill="white"/>
<path fill-rule="evenodd" clip-rule="evenodd" d="M97.835 12.212V12.219V12.212L109.935 5.241C110.631 6.57198 110.996 8.05102 111 9.55301C111 12.0726 109.999 14.4889 108.218 16.2705C106.436 18.0521 104.02 19.053 101.5 19.053C98.9804 19.053 96.5641 18.0521 94.7825 16.2705C93.0009 14.4889 92 12.0726 92 9.55301C92 9.32201 92.011 9.094 92.028 8.867L97.835 12.212ZM97.842 11.048L92.17 7.78C92.2312 7.45704 92.3097 7.13758 92.405 6.823L97.835 9.952V9.95801V9.952L108.861 3.60001C109.061 3.84601 109.249 4.10167 109.425 4.367L97.842 11.048ZM108.176 2.83401L97.842 8.78699L92.756 5.85599C92.8803 5.56533 93.0194 5.2813 93.173 5.005L97.835 7.69101V7.69699V7.69101L107.413 2.173C107.679 2.38008 107.933 2.60072 108.176 2.83401ZM97.839 5.43399V5.42801L105.537 1C105.873 1.15667 106.199 1.33331 106.514 1.52899L97.842 6.52899L93.712 4.14999C93.8953 3.8893 94.0915 3.63799 94.3 3.397L97.835 5.43301L97.839 5.43399Z" fill="white"/>
<path opacity="0.5" fill-rule="evenodd" clip-rule="evenodd" d="M147 18C145.595 17.9999 144.215 17.6276 143 16.921C144.216 16.2203 145.226 15.2118 145.928 13.9968C146.63 12.7818 147 11.4033 147 10C147 8.59674 146.63 7.21823 145.928 6.00324C145.226 4.78825 144.216 3.77968 143 3.07901C144.063 2.46299 145.253 2.09987 146.478 2.01786C147.704 1.93584 148.932 2.13712 150.067 2.60605C151.202 3.07499 152.214 3.79899 153.024 4.72199C153.835 5.64499 154.422 6.74219 154.74 7.92853C155.058 9.11487 155.098 10.3585 154.858 11.5631C154.618 12.7676 154.104 13.9008 153.356 14.8747C152.607 15.8486 151.645 16.637 150.543 17.179C149.44 17.721 148.228 18.0019 147 18Z" fill="white"/>
<path fill-rule="evenodd" clip-rule="evenodd" d="M139 10C139 11.4033 139.37 12.7817 140.072 13.9966C140.775 15.2116 141.784 16.2202 143 16.921C141.784 17.6259 140.404 17.9981 138.998 18C137.593 18.0019 136.212 17.6335 134.994 16.9318C133.776 16.2301 132.764 15.22 132.061 14.0031C131.358 12.7862 130.988 11.4055 130.988 10C130.988 8.59449 131.358 7.21379 132.061 5.99689C132.764 4.78 133.776 3.76988 134.994 3.06821C136.212 2.36655 137.593 1.99811 138.998 2.00001C140.404 2.0019 141.784 2.37407 143 3.07902C141.784 3.77985 140.775 4.78846 140.072 6.00339C139.37 7.21833 139 8.59675 139 10Z" fill="white"/>
<path opacity="0.75" fill-rule="evenodd" clip-rule="evenodd" d="M143 16.9211C141.784 16.2204 140.774 15.2118 140.072 13.9969C139.37 12.7819 139 11.4034 139 10.0001C139 8.59682 139.37 7.21831 140.072 6.00333C140.774 4.78834 141.784 3.77976 143 3.0791C144.216 3.77976 145.226 4.78834 145.928 6.00333C146.63 7.21831 147 8.59682 147 10.0001C147 11.4034 146.63 12.7819 145.928 13.9969C145.226 15.2118 144.216 16.2204 143 16.9211Z" fill="white"/>
<path fill-rule="evenodd" clip-rule="evenodd" d="M187.839 14.2681L185.819 15.0021C185.754 15.0246 185.683 15.0212 185.621 14.9924C185.559 14.9637 185.511 14.9119 185.486 14.8481L184.439 12.0161H179.539L178.495 14.8421C178.47 14.9059 178.422 14.9577 178.36 14.9866C178.298 15.0155 178.228 15.0193 178.163 14.9971L176.146 14.2631C176.114 14.2532 176.085 14.2369 176.059 14.2154C176.034 14.1938 176.013 14.1674 175.998 14.1377C175.983 14.1079 175.974 14.0755 175.972 14.0422C175.97 14.009 175.974 13.9756 175.985 13.9441L180.063 3.24411C180.227 2.87117 180.496 2.55406 180.837 2.33142C181.179 2.10878 181.577 1.99023 181.985 1.99023C182.392 1.99023 182.791 2.10878 183.132 2.33142C183.474 2.55406 183.743 2.87117 183.907 3.24411L188 13.9501C188.011 13.9816 188.015 14.0148 188.013 14.048C188.011 14.0812 188.002 14.1136 187.987 14.1432C187.972 14.1729 187.951 14.1993 187.926 14.2207C187.9 14.2422 187.871 14.2583 187.839 14.2681ZM182.309 5.94412L181.988 5.04413V5.03711L180.143 10.0001H183.835L182.309 5.94412ZM175.984 17.0001H188.016C188.272 17.0083 188.514 17.1156 188.692 17.2993C188.87 17.4831 188.969 17.7288 188.969 17.9846C188.969 18.2404 188.87 18.4862 188.692 18.67C188.514 18.8537 188.272 18.961 188.016 18.9691H175.984C175.728 18.961 175.486 18.8537 175.308 18.67C175.13 18.4862 175.03 18.2404 175.03 17.9846C175.03 17.7288 175.13 17.4831 175.308 17.2993C175.486 17.1156 175.728 17.0083 175.984 17.0001Z" fill="white"/>
<path fill-rule="evenodd" clip-rule="evenodd" d="M218.01 15.0003V9.65525H217.766L216.026 15.0003H213.96H213.954L212.218 9.65525H211.976V15.0003H209V6.00025H211.976C212.343 5.99556 212.702 6.10806 213 6.32136C213.299 6.53466 213.522 6.83765 213.636 7.18626L214.859 11.3463H215.116L216.341 7.18626C216.456 6.83633 216.68 6.53244 216.981 6.31904C217.281 6.10564 217.642 5.99394 218.01 6.00025H220.986V15.0003H218.01Z" fill="white"/>
<path fill-rule="evenodd" clip-rule="evenodd" d="M228.978 15V9.655H228.751L226.87 14.14C226.754 14.3964 226.567 14.614 226.331 14.7666C226.095 14.9191 225.819 15.0002 225.538 15H223.013V6H226.013V11.345H226.251L228.156 6.85501L228.171 6.82101C228.291 6.57571 228.478 6.36907 228.71 6.22464C228.942 6.08021 229.21 6.00377 229.483 6.004H232.008V15.004H228.98L228.978 15Z" fill="white"/>
<path fill-rule="evenodd" clip-rule="evenodd" d="M240.547 12.0142H237.019V15.0002H234.019V9.99316H243.972C243.663 10.6292 243.173 11.1601 242.564 11.5195C241.955 11.8789 241.253 12.051 240.547 12.0142Z" fill="white"/>
<path opacity="0.7" fill-rule="evenodd" clip-rule="evenodd" d="M243.919 9.00601H238.507C236.035 9.00601 233.979 7.706 233.546 6H240.569C242.459 6 243.991 7.11699 243.991 8.49399C243.991 8.66716 243.967 8.83949 243.919 9.00601Z" fill="white"/>
</g>
</svg>
