<svg width="8" height="14" viewBox="0 0 8 14" fill="none" xmlns="http://www.w3.org/2000/svg">
<path opacity="0.5" d="M2 7.02436L2.00003 7L2 7.02436ZM2 7.02436C2.00001 9.40742 2.8871 11.0156 3.08065 11.2495M2 7.02436L3.08065 11.2495M1.00003 7.00078L1.00001 6.97642L1.00001 6.97564C1 5.6603 1.24469 4.55427 1.52021 3.73751C1.78347 2.95707 2.10138 2.36538 2.31017 2.11302L2.31018 2.11301C2.46974 1.92017 2.72362 1.67883 3.04323 1.47299C3.36225 1.26753 3.80573 1.0597 4.33185 1.02205L4.33187 1.02205C4.80878 0.987924 5.01179 1.00015 5.18995 1.01401L5.19008 1.01402C5.2461 1.01839 5.26417 1.0195 5.29033 1.0195L1.00003 7.00078ZM1.00003 7.00078L1 7.02332V7.02437C1.00001 8.3397 1.24469 9.44573 1.5202 10.2625C1.78346 11.0429 2.10137 11.6346 2.31019 11.887C2.46973 12.0798 2.72361 12.3212 3.04321 12.527C3.36223 12.7325 3.80571 12.9403 4.33184 12.978C4.80871 13.0121 5.01184 12.9998 5.18989 12.986L5.19 12.986C5.24599 12.9816 5.2641 12.9805 5.29032 12.9805H5.29033C5.67689 12.9805 5.96862 12.7832 6.0759 12.7069C6.22868 12.5983 6.36572 12.4672 6.47782 12.3409C6.59069 12.2137 6.70361 12.0627 6.79436 11.8999C6.86845 11.767 7 11.5012 7 11.1764L1.00003 7.00078ZM4.35609 6.99831L4.35558 7.02175L4.3551 7.04351L4.3551 7.04392L4.35484 7.0675L4.35485 7.06822C4.35485 7.20486 4.36544 7.50095 4.38847 7.81583C4.39804 7.94668 4.40887 8.06748 4.42019 8.1731C4.54896 8.15252 4.69979 8.13753 4.84687 8.14586L4.35609 6.99831ZM4.35609 6.99831L4.3555 6.97488M4.35609 6.99831L4.3555 6.97488M4.09971 8.62236V8.62236ZM4.09971 8.62236L3.98388 9.26122C3.82258 9.23197 3.59679 9.1735 3.5 8.76414L4.09971 8.62236ZM4.3555 6.97488C4.35501 6.95549 4.35485 6.94124 4.35485 6.93177L4.3555 6.97488ZM6.42237 9.72726L6.42236 9.72726L6.43044 9.7404C6.52043 9.88675 6.64566 10.0904 6.7478 10.2912C6.82894 10.4507 6.99999 10.7981 7 11.1764L6.42237 9.72726ZM6.42237 9.72726L6.41995 9.72336L6.42237 9.72726ZM6.21958 4.63236L6.21951 4.6325C6.21596 4.63937 6.2123 4.64646 6.20853 4.65376C6.13543 4.7954 6.02234 5.01454 5.89279 5.20023C5.82359 5.29942 5.72054 5.43254 5.5808 5.55111C5.44563 5.6658 5.19623 5.83434 4.84694 5.85415L4.84683 5.85415C4.69973 5.86248 4.54893 5.84748 4.42019 5.82691C4.40887 5.93252 4.39804 6.05333 4.38847 6.18418C4.36545 6.49894 4.35485 6.79492 4.35485 6.93161L6.21958 4.63236ZM6.21958 4.63236C6.27773 4.51978 6.31288 4.45269 6.34071 4.40643L6.21958 4.63236ZM6.20861 9.34645C6.21237 9.35372 6.21601 9.36079 6.21955 9.36764L6.20861 9.34645ZM6.20861 9.34645C6.13552 9.20477 6.02242 8.98556 5.89285 8.79982M6.20861 9.34645L5.89285 8.79982M5.89285 8.79982C5.82364 8.70062 5.72058 8.56746 5.58081 8.44888M5.89285 8.79982L5.58081 8.44888M5.58081 8.44888C5.44559 8.33416 5.1962 8.16566 4.84695 8.14586L5.58081 8.44888ZM4.40323 11.9805C4.82933 12.011 4.98267 11.9991 5.1124 11.989C5.16922 11.9846 5.22154 11.9805 5.29033 11.9805L4.40323 11.9805ZM4.40323 11.9805C3.79032 11.9366 3.27419 11.4834 3.08065 11.2495M4.40323 11.9805L3.08065 11.2495M4.09975 8.62235V8.62235ZM6.3407 9.59356C6.31287 9.54732 6.27774 9.48026 6.21958 9.36768L6.41982 9.72315C6.38979 9.67427 6.36394 9.63218 6.3407 9.59356ZM7 2.82359C7.00001 2.49878 6.86845 2.23302 6.79437 2.10009C6.70362 1.93726 6.5907 1.78633 6.47782 1.65913C6.36573 1.5328 6.22868 1.40171 6.07591 1.2931C5.96862 1.21683 5.6769 1.0195 5.29034 1.0195L7 2.82359ZM6.74781 3.70881C6.82894 3.54933 6.99998 3.20191 7 2.82364L6.41943 4.27751C6.41945 4.27749 6.41946 4.27746 6.41948 4.27744L6.42237 4.27272L6.42243 4.27264L6.43045 4.25959C6.52044 4.11324 6.64566 3.90959 6.74781 3.70881Z" stroke="white" stroke-width="2"/>
</svg>
